<svg xmlns="http://www.w3.org/2000/svg" width="650" zoomAndPan="magnify" viewBox="0 0 487.5 90" height="120" preserveAspectRatio="xMidYMid meet" version="1"><defs><clipPath id="a"><path d="M397 47h43v42.953h-43zm0 0" clip-rule="nonzero"/></clipPath></defs><path d="M210.331 88.421h-19.015c-.657 0-.985-.328-.985-.984v-4.203c0-.656.328-.985.985-.985h5.515V41.281h-.078l-15.625 38.828c-.668 1.648-1.883 2.469-3.64 2.469-1.75 0-2.954-.82-3.61-2.47l-15.625-38.827h-.172v40.968h5.516c.719 0 1.078.329 1.078.985v4.203c0 .656-.36.984-1.078.984h-18.922c-.711 0-1.063-.328-1.063-.984v-4.203c0-.656.352-.985 1.063-.985h6.25V35.531h-6.25c-.711 0-1.063-.332-1.063-1v-4.188c0-.656.352-.984 1.063-.984h12.672c1.863 0 3.148.933 3.86 2.797l12.265 29.609 3.86 10.375h.327c1.54-4.281 2.805-7.68 3.797-10.203l12.328-29.781c.72-1.864 2.036-2.797 3.953-2.797h12.594c.656 0 .985.328.985.984v4.188c0 .668-.329 1-.985 1h-6.344v46.718h6.344c.656 0 .985.329.985.985v4.203c0 .656-.329.984-.985.984zm0 0M261.08 88.421h-7.157c-2.367 0-3.547-1.148-3.547-3.453v-3.047h-.25C247.876 86.64 243.6 89 237.298 89c-4.387 0-7.855-1.3-10.406-3.906-2.555-2.601-3.856-6.07-3.907-10.406V53.453h-4.687c-.656 0-.984-.329-.984-.985v-3.531c0-.656.328-.984.984-.984h7.89c2.364 0 3.547 1.152 3.547 3.453V73.03c0 3.187.766 5.664 2.297 7.422 1.532 1.75 3.782 2.625 6.75 2.625 4 0 7.149-1.485 9.453-4.454.989-1.257 1.485-2.109 1.485-2.546V53.453h-4.438c-.656 0-.984-.329-.984-.985v-3.531c0-.656.328-.984.984-.984h10.203c.657 0 .985.328.985.984v33.969h4.61c.706 0 1.062.328 1.062.984v3.547c0 .656-.356.984-1.063.984zm0 0M285.168 88.421h-15.703c-.719 0-1.078-.328-1.078-.984V83.89c0-.656.36-.984 1.078-.984h4.516V34.859h-4.516c-.719 0-1.078-.328-1.078-.985v-3.53c0-.657.36-.985 1.078-.985h9.125c1.476 0 2.219.683 2.219 2.047v51.5h4.359c.719 0 1.078.328 1.078.984v3.547c0 .656-.36.984-1.078.984zm0 0M319.972 84.218c.218.23.328.469.328.719 0 .242-.168.527-.5.86-2.418 2.136-5.45 3.202-9.094 3.202-3.648 0-6.637-1.191-8.969-3.578-2.324-2.383-3.484-5.851-3.484-10.406V53.453h-4.61c-.773 0-1.156-.352-1.156-1.063v-3.375c0-.707.383-1.062 1.157-1.062h4.609V39.64c0-.77.379-1.156 1.14-1.156h4.61c.719 0 1.078.386 1.078 1.156v8.313h10.438c.77 0 1.156.355 1.156 1.062v3.375c0 .71-.387 1.063-1.156 1.063H305.08v21.39c0 2.75.613 4.824 1.844 6.219 1.238 1.398 2.883 2.094 4.937 2.094 2.051 0 3.598-.52 4.64-1.563.552-.488 1.048-.46 1.485.078zm0 0M342.253 88.421h-15.704c-.718 0-1.078-.328-1.078-.984V83.89c0-.656.36-.984 1.078-.984h4.516V53.453h-4.516c-.718 0-1.078-.329-1.078-.985v-3.531c0-.656.36-.984 1.078-.984h10.36c.656 0 .984.328.984.984v33.969h4.36c.718 0 1.078.328 1.078.984v3.547c0 .656-.36.984-1.078.984zm-4.641-52.64c.906.93 1.36 2.023 1.36 3.28 0 1.263-.454 2.337-1.36 3.22-.906.875-1.992 1.312-3.25 1.312-1.262 0-2.344-.437-3.25-1.312-.906-.883-1.36-1.957-1.36-3.22 0-1.257.454-2.35 1.36-3.28.906-.938 1.988-1.407 3.25-1.407 1.258 0 2.344.47 3.25 1.407zm0 0M373.26 88.421h-5.5c-.555 0-.938-.093-1.157-.281-.219-.195-.437-.598-.656-1.203l-13.078-33.484h-4.61c-.656 0-.984-.329-.984-.985v-3.531c0-.656.328-.984.984-.984h15.297c.656 0 .985.328.985.984v3.531c0 .656-.329.985-.985.985h-3.625l10.531 27.734h.172l10.688-27.734h-3.703c-.657 0-.985-.329-.985-.985v-3.531c0-.656.328-.984.985-.984h15.312c.707 0 1.063.328 1.063.984v3.531c0 .656-.356.985-1.063.985H388.4l-13.25 33.484c-.324.992-.953 1.484-1.89 1.484zm0 0" fill="#000" fill-opacity="1"/><g clip-path="url(#a)"><path d="M438.328 88.421h-7.156c-2.356 0-3.532-1.148-3.532-3.453v-4.203h-.171c-4 5.543-9.344 8.313-16.032 8.313-3.96 0-7.199-1.024-9.718-3.079-2.524-2.062-3.782-4.847-3.782-8.359 0-4.488 1.957-7.79 5.875-9.906 3.926-2.114 9.317-3.172 16.172-3.172h6.906v-.984c0-6.852-3.562-10.282-10.687-10.282-3.344 0-5.762.32-7.25.953-1.48.625-2.54 1.133-3.172 1.516a41.83 41.83 0 0 0-1.422.906c-.824.657-1.43.711-1.812.157l-2.313-2.875c-.375-.438-.32-.875.172-1.313.938-1.207 2.86-2.39 5.766-3.547 2.906-1.144 6.332-1.719 10.281-1.719 11.508 0 17.266 5.485 17.266 16.454v19.078h4.609c.656 0 .984.328.984.984v3.547c0 .656-.328.984-.984.984zM426.89 69.5h-6.5c-3.18 0-5.808.168-7.89.5-2.086.325-3.856 1.04-5.313 2.141-1.449 1.094-2.172 2.602-2.172 4.516 0 1.918.782 3.496 2.344 4.734 1.563 1.23 3.602 1.844 6.125 1.844 5.32 0 9.79-2.352 13.406-7.063zm0 0" fill="#000" fill-opacity="1"/></g><path d="M483.16 78.874c.32.282.485.547.485.797 0 .242-.125.57-.375.985-.242.406-.762 1.023-1.563 1.843-.793.825-1.886 1.758-3.28 2.797-1.4 1.043-3.212 1.922-5.438 2.64-2.22.708-4.59 1.063-7.11 1.063-5.761 0-10.574-1.89-14.437-5.671-3.867-3.79-5.797-8.88-5.797-15.266 0-6.383 1.93-11.426 5.797-15.125 3.863-3.707 8.594-5.563 14.187-5.563 5.594 0 9.817 2.028 12.672 6.079h.094l-.094-4.516c0-.719.36-1.078 1.078-1.078h3.125c.657 0 .985.36.985 1.078V62.92c0 .657-.328.985-.985.985h-3.781c-.668 0-1-.328-1-.985v-1.406c-.055-1.969-1.18-3.86-3.375-5.672-2.187-1.812-4.969-2.719-8.344-2.719-3.375 0-6.465 1.344-9.265 4.032-2.793 2.687-4.188 6.351-4.188 10.984 0 4.637 1.367 8.313 4.11 11.031 2.75 2.711 5.82 4.063 9.218 4.063 3.407 0 6.301-.723 8.688-2.172 2.383-1.457 3.988-2.867 4.812-4.234.383-.665.848-.75 1.39-.25zm0 0" fill="#000" fill-opacity="1"/></svg>