<svg xmlns="http://www.w3.org/2000/svg" width="500" zoomAndPan="magnify" viewBox="0 0 375 101.25" height="135" preserveAspectRatio="xMidYMid meet" version="1"><path d="M79.646 78.875H59.74c-.7 0-1.047-.344-1.047-1.031v-4.407c0-.687.347-1.03 1.047-1.03h5.765V29.483h-.078L49.052 70.172c-.7 1.719-1.969 2.578-3.812 2.578-1.836 0-3.094-.86-3.782-2.578L25.083 29.484h-.171v42.922h5.765c.75 0 1.125.344 1.125 1.031v4.407c0 .687-.375 1.031-1.125 1.031H10.865c-.75 0-1.125-.344-1.125-1.031v-4.407c0-.687.375-1.03 1.125-1.03h6.547V23.452h-6.547c-.75 0-1.125-.348-1.125-1.047v-4.39c0-.688.375-1.032 1.125-1.032H24.13c1.957 0 3.305.977 4.047 2.922l12.844 31.031 4.062 10.875h.344c1.602-4.488 2.926-8.05 3.969-10.687l12.922-31.219c.75-1.945 2.129-2.922 4.14-2.922h13.188c.687 0 1.031.344 1.031 1.032v4.39c0 .7-.344 1.047-1.031 1.047h-6.64v48.953h6.64c.687 0 1.031.344 1.031 1.031v4.407c0 .687-.344 1.031-1.031 1.031zm0 0M132.823 78.875h-7.5c-2.468 0-3.703-1.207-3.703-3.625v-3.188h-.265c-2.356 4.95-6.836 7.422-13.438 7.422-4.605 0-8.246-1.363-10.922-4.093-2.668-2.727-4.027-6.364-4.078-10.907v-22.25h-4.922c-.687 0-1.031-.343-1.031-1.03V37.5c0-.688.344-1.031 1.031-1.031h8.281c2.47 0 3.704 1.203 3.704 3.61V62.75c0 3.336.8 5.922 2.406 7.766 1.613 1.836 3.972 2.75 7.078 2.75 4.195 0 7.5-1.551 9.906-4.657 1.04-1.312 1.563-2.203 1.563-2.672V42.234h-4.657c-.687 0-1.03-.343-1.03-1.03V37.5c0-.688.343-1.031 1.03-1.031h10.688c.687 0 1.031.343 1.031 1.031v35.594h4.828c.75 0 1.125.351 1.125 1.047v3.703c0 .687-.375 1.031-1.125 1.031zm0 0M158.07 78.875h-16.468c-.742 0-1.11-.344-1.11-1.031V74.14c0-.696.368-1.047 1.11-1.047h4.75V22.75h-4.75c-.742 0-1.11-.344-1.11-1.031v-3.703c0-.688.368-1.032 1.11-1.032h9.578c1.55 0 2.328.72 2.328 2.157v53.953h4.563c.75 0 1.125.351 1.125 1.047v3.703c0 .687-.375 1.031-1.125 1.031zm0 0M194.527 74.484c.227.23.344.477.344.735 0 .25-.172.547-.516.89-2.523 2.25-5.695 3.375-9.515 3.375-3.824 0-6.961-1.25-9.406-3.75-2.438-2.5-3.657-6.132-3.657-10.906V42.234h-4.828c-.804 0-1.203-.367-1.203-1.109v-3.547c0-.738.399-1.11 1.203-1.11h4.828V27.75c0-.8.399-1.203 1.203-1.203h4.829c.75 0 1.125.402 1.125 1.203v8.719h10.937c.813 0 1.219.37 1.219 1.11v3.546c0 .742-.406 1.11-1.219 1.11h-10.937v22.421c0 2.875.644 5.047 1.937 6.516 1.29 1.46 3.016 2.187 5.172 2.187 2.156 0 3.781-.547 4.875-1.64.57-.52 1.086-.489 1.547.093zm0 0M217.886 78.875h-16.468c-.742 0-1.11-.344-1.11-1.031V74.14c0-.696.368-1.047 1.11-1.047h4.75v-30.86h-4.75c-.742 0-1.11-.343-1.11-1.03V37.5c0-.688.368-1.031 1.11-1.031h10.875c.687 0 1.03.343 1.03 1.031v35.594h4.563c.75 0 1.125.351 1.125 1.047v3.703c0 .687-.375 1.031-1.125 1.031zm-4.875-55.172c.946.98 1.422 2.133 1.422 3.453 0 1.324-.476 2.446-1.422 3.36-.949.918-2.085 1.375-3.406 1.375-1.312 0-2.445-.457-3.39-1.375-.95-.914-1.422-2.036-1.422-3.36 0-1.32.472-2.472 1.422-3.453.945-.976 2.078-1.469 3.39-1.469 1.32 0 2.457.493 3.406 1.47zm0 0M250.39 78.875h-5.781c-.574 0-.977-.098-1.203-.297-.23-.207-.461-.625-.688-1.25L229 42.234h-4.828c-.687 0-1.03-.343-1.03-1.03V37.5c0-.688.343-1.031 1.03-1.031h16.047c.688 0 1.031.343 1.031 1.031v3.703c0 .688-.343 1.031-1.03 1.031h-3.798l11.032 29.063h.171l11.204-29.063h-3.875c-.688 0-1.032-.343-1.032-1.03V37.5c0-.688.344-1.031 1.032-1.031h16.03c.75 0 1.126.343 1.126 1.031v3.703c0 .688-.375 1.031-1.125 1.031h-4.735l-13.89 35.094c-.344 1.031-1 1.547-1.969 1.547zm0 0M318.554 78.875h-7.484c-2.48 0-3.719-1.207-3.719-3.625v-4.39h-.172c-4.187 5.804-9.793 8.702-16.812 8.702-4.137 0-7.528-1.078-10.172-3.234-2.637-2.156-3.953-5.07-3.953-8.75 0-4.707 2.05-8.164 6.156-10.375 4.113-2.219 9.758-3.328 16.937-3.328h7.25v-1.031c0-7.188-3.742-10.782-11.218-10.782-3.5 0-6.028.336-7.578 1-1.555.657-2.664 1.188-3.329 1.594-.656.399-1.156.711-1.5.938-.867.699-1.496.758-1.89.172l-2.422-3.016c-.398-.457-.34-.914.172-1.375.976-1.258 2.988-2.492 6.031-3.703 3.05-1.207 6.645-1.813 10.781-1.813 12.07 0 18.11 5.746 18.11 17.235v20h4.812c.696 0 1.047.351 1.047 1.047v3.703c0 .687-.351 1.031-1.047 1.031zm-11.969-19.828h-6.812c-3.336 0-6.094.172-8.281.515-2.18.344-4.032 1.094-5.563 2.25-1.523 1.149-2.281 2.727-2.281 4.735 0 2.012.816 3.664 2.453 4.953 1.645 1.293 3.785 1.937 6.422 1.937 5.582 0 10.27-2.468 14.062-7.406zm0 0M365.529 68.875c.344.293.515.57.515.828 0 .25-.132.594-.39 1.031-.25.43-.793 1.075-1.625 1.938-.836.867-1.985 1.844-3.453 2.937-1.47 1.086-3.368 2-5.688 2.75-2.324.75-4.808 1.125-7.453 1.125-6.031 0-11.074-1.984-15.125-5.953-4.055-3.969-6.078-9.297-6.078-15.984 0-6.695 2.023-11.985 6.078-15.86 4.05-3.882 9.004-5.828 14.86-5.828 5.863 0 10.288 2.125 13.28 6.375h.079l-.078-4.734c0-.75.375-1.125 1.125-1.125h3.265c.688 0 1.032.375 1.032 1.125v14.656c0 .688-.344 1.031-1.032 1.031h-3.968c-.688 0-1.032-.343-1.032-1.03v-1.47c-.054-2.07-1.23-4.054-3.531-5.953-2.305-1.894-5.219-2.843-8.75-2.843-3.531 0-6.766 1.414-9.703 4.234-2.93 2.812-4.39 6.648-4.39 11.5 0 4.855 1.437 8.703 4.312 11.547 2.875 2.844 6.094 4.265 9.656 4.265 3.563 0 6.594-.757 9.094-2.28 2.5-1.52 4.18-3 5.047-4.438.394-.688.879-.77 1.453-.25zm0 0" fill="#000" fill-opacity="1"/></svg>